<svg xmlns="http://www.w3.org/2000/svg" width="1000" height="1000" viewBox="0 0 1000 1000"><defs><style>.cls-1{fill:#fff;}</style></defs><title>burger copy</title><g id="Layer_2" data-name="Layer 2"><path class="cls-1" d="M292.62,0C134.21,0,5,129.23,5,287.65v415.7C5,861.77,134.21,991,292.62,991h415.7C866.74,991,996,861.77,996,703.35V287.65C996,129.23,866.74,0,708.32,0Zm0,76.23h415.7A210.81,210.81,0,0,1,919.74,287.65v415.7A210.81,210.81,0,0,1,708.32,914.77H292.62A210.81,210.81,0,0,1,81.2,703.35V287.65A210.81,210.81,0,0,1,292.62,76.23Zm493.72,76.23a57.18,57.18,0,1,0,57.17,57.17A57.19,57.19,0,0,0,786.34,152.46ZM500.47,228.69c-147,0-266.81,119.86-266.81,266.81S353.52,762.31,500.47,762.31,767.28,642.45,767.28,495.5,647.42,228.69,500.47,228.69Zm0,76.23A190.58,190.58,0,1,1,309.89,495.5,190,190,0,0,1,500.47,304.92Z"/></g></svg>
